<svg xmlns="http://www.w3.org/2000/svg" width="24" height="23.999" viewBox="0 0 24 23.999"><defs><style>.a{fill:#be9655;}</style></defs><g transform="translate(0 -0.006)"><path class="a" d="M21.929,6.361,6.5,3.378,6.28,2.119A2.549,2.549,0,0,0,3.758.006H1.091a1.091,1.091,0,1,0,0,2.182H3.758a.372.372,0,0,1,.372.3l.343,1.976q0,.025.009.049l1.8,10.392a2.549,2.549,0,0,0,2.521,2.113H20.561a2.542,2.542,0,0,0,2.528-2.154l.88-5.617A2.538,2.538,0,0,0,21.929,6.361Zm-.115,2.553-.88,5.617a.371.371,0,0,1-.373.309H8.806a.372.372,0,0,1-.372-.3L6.9,5.677,21.515,8.5A.364.364,0,0,1,21.813,8.914Z"/><path class="a" d="M130.882,378.174a2.924,2.924,0,1,0,2.924,2.923A2.927,2.927,0,0,0,130.882,378.174Zm0,3.666a.742.742,0,1,1,.742-.742A.743.743,0,0,1,130.882,381.84Z" transform="translate(-121.816 -360.016)"/><path class="a" d="M343.534,378.174a2.924,2.924,0,1,0,2.924,2.923A2.927,2.927,0,0,0,343.534,378.174Zm0,3.666a.742.742,0,1,1,.742-.742A.743.743,0,0,1,343.534,381.84Z" transform="translate(-324.262 -360.016)"/></g></svg>