<svg xmlns="http://www.w3.org/2000/svg" width="24" height="21.961" viewBox="0 0 24 21.961"><defs><style>.a{fill:#be9655;}</style></defs><path class="a" d="M15.762,21.239a8.2,8.2,0,0,0-6.229,2.849A6.29,6.29,0,1,0,5.2,35.672v6.437A1.091,1.091,0,0,0,6.29,43.2H16.2a1.091,1.091,0,0,0,1.091-1.091V37.571a8.238,8.238,0,0,0-1.532-16.332Zm.375,14.281a1.094,1.094,0,0,0-.191.029,1.093,1.093,0,0,0-.183-.017,6.006,6.006,0,0,1-4.367-1.86,1.091,1.091,0,1,0-1.573,1.512,8.158,8.158,0,0,0,5.29,2.5v3.331H7.381V34.676A1.091,1.091,0,0,0,6.29,33.585a4.108,4.108,0,1,1,2.739-7.169,1.091,1.091,0,0,0,1.644-.22,6.055,6.055,0,1,1,5.464,9.324Z" transform="translate(0 -21.239)"/></svg>