<svg xmlns="http://www.w3.org/2000/svg" width="25.395" height="20" viewBox="0 0 25.395 20"><defs><style>.a{fill:#be9655;}</style></defs><path class="a" d="M24.241,64.25H22.5a10.135,10.135,0,0,0,1.045-4.836,6.177,6.177,0,0,0-6-6.3A9.145,9.145,0,0,0,12.7,54.692,9.144,9.144,0,0,0,7.85,53.11a6.177,6.177,0,0,0-6,6.3A10.134,10.134,0,0,0,2.892,64.25H1.154a1.154,1.154,0,0,0,0,2.309H4.308a24.679,24.679,0,0,0,7.877,6.432,1.154,1.154,0,0,0,1.025,0,24.68,24.68,0,0,0,7.877-6.432h3.153a1.154,1.154,0,0,0,0-2.309ZM4.155,59.488c0-.017,0-.033,0-.05a3.871,3.871,0,0,1,3.694-4.02,7.275,7.275,0,0,1,4.1,1.58,1.159,1.159,0,0,0,1.494,0,7.276,7.276,0,0,1,4.1-1.58,3.872,3.872,0,0,1,3.694,4.02q0,.025,0,.05a8.313,8.313,0,0,1-1.374,4.761h-.021l-2.827-5.47a1.154,1.154,0,0,0-2.081.062l-2.488,5.611-2.071-2.835a1.154,1.154,0,0,0-1.748-.135L5.862,64.25H5.524A8.324,8.324,0,0,1,4.155,59.488ZM12.7,70.645a23.762,23.762,0,0,1-5.614-4.358c.025-.021.05-.043.073-.067l2.153-2.153,2.454,3.359a1.154,1.154,0,0,0,1.987-.213l2.322-5.236,2.044,3.956a1.149,1.149,0,0,0,.231.3A23.826,23.826,0,0,1,12.7,70.645Z" transform="translate(0 -53.11)"/></svg>