<svg xmlns="http://www.w3.org/2000/svg" width="184.186" height="70" viewBox="0 0 184.186 70"><defs><style>.a{fill:#be9655;}</style></defs><g transform="translate(-0.744)"><path class="a" d="M144.2,56.227l2.687,0a3.592,3.592,0,0,1,3.826,3.582v.02a3.6,3.6,0,0,1-3.826,3.6H144.2Zm1.267,1.156-.006,4.9,1.426,0a2.352,2.352,0,0,0,2.5-2.435v-.019a2.365,2.365,0,0,0-2.5-2.447Z" transform="translate(-17.94 -7.031)"/><path class="a" d="M153.018,60.974v-.018a2.7,2.7,0,0,1,2.66-2.83,2.628,2.628,0,0,1,2.6,2.922,2.482,2.482,0,0,1-.023.354l-3.991,0a1.521,1.521,0,0,0,1.567,1.381,1.983,1.983,0,0,0,1.473-.647l.729.647A2.753,2.753,0,0,1,155.8,63.8a2.706,2.706,0,0,1-2.784-2.823m4.026-.4a1.413,1.413,0,0,0-1.377-1.428,1.475,1.475,0,0,0-1.418,1.428Z" transform="translate(-19.042 -7.269)"/><path class="a" d="M160.077,62.971l.558-.843a3.091,3.091,0,0,0,1.777.666c.542,0,.848-.225.848-.588l0-.024c0-.419-.572-.562-1.21-.759-.807-.227-1.7-.556-1.7-1.6v-.021a1.737,1.737,0,0,1,1.937-1.659,3.763,3.763,0,0,1,2,.623l-.5.884a3.118,3.118,0,0,0-1.53-.515c-.484,0-.759.227-.759.536l0,.02c0,.4.585.564,1.222.772.8.247,1.694.607,1.692,1.585l0,.021c0,1.14-.887,1.709-2.019,1.709a3.833,3.833,0,0,1-2.307-.811" transform="translate(-19.925 -7.272)"/><path class="a" d="M166.277,60.689v-.021a2.591,2.591,0,0,1,2.53-2.819,2.232,2.232,0,0,1,1.85.958l0-2.925H171.9L171.9,63.4h-1.242l0-.9a2.171,2.171,0,0,1-1.842,1.023,2.618,2.618,0,0,1-2.53-2.826m4.4,0v-.024A1.63,1.63,0,0,0,169.1,58.93a1.594,1.594,0,0,0-1.57,1.738v.024a1.618,1.618,0,0,0,1.565,1.738,1.636,1.636,0,0,0,1.575-1.738" transform="translate(-20.7 -6.988)"/><path class="a" d="M174.269,60.979v-.016a2.7,2.7,0,0,1,2.662-2.832,2.629,2.629,0,0,1,2.6,2.924c0,.114-.012.227-.024.351h-4a1.521,1.521,0,0,0,1.565,1.377,1.976,1.976,0,0,0,1.471-.644l.737.644a2.752,2.752,0,0,1-2.226,1.02,2.717,2.717,0,0,1-2.792-2.824m4.028-.4a1.405,1.405,0,0,0-1.383-1.426,1.467,1.467,0,0,0-1.407,1.426Z" transform="translate(-21.7 -7.269)"/><path class="a" d="M186.466,57.467l-1.3.359L184.9,56.8l1.954-.621.865,0v7.259H186.46Z" transform="translate(-23.029 -7.025)"/><path class="a" d="M189.935,61.465l0-.02a1.823,1.823,0,0,1,1.3-1.751,1.723,1.723,0,0,1-1.052-1.606v-.02c0-1.1,1.06-1.943,2.5-1.943s2.508.829,2.5,1.943l.006.02a1.748,1.748,0,0,1-1.056,1.606,1.84,1.84,0,0,1,1.293,1.732l0,.019c0,1.287-1.175,2.092-2.75,2.09s-2.747-.825-2.747-2.07m4.26-.075v-.016c0-.661-.66-1.093-1.512-1.093s-1.5.431-1.5,1.093v.016c0,.59.558,1.083,1.5,1.083s1.515-.484,1.515-1.083m-.225-3.177v-.02c0-.558-.511-1.012-1.287-1.012s-1.289.452-1.289,1l.005.02a1.307,1.307,0,0,0,2.571.011" transform="translate(-23.658 -7.019)"/><path class="a" d="M201.788,60.125a2.1,2.1,0,0,1-1.7.77,2.28,2.28,0,0,1-2.549-2.286l0-.017a2.506,2.506,0,0,1,2.685-2.492,2.633,2.633,0,0,1,2.013.762,3.681,3.681,0,0,1,.868,2.746l0,.024c-.008,2.319-1.142,3.922-3.093,3.922a3.451,3.451,0,0,1-2.312-.868l.7-.966a2.448,2.448,0,0,0,1.646.682c1.278,0,1.74-1.315,1.752-2.276m-.045-1.586v-.018a1.373,1.373,0,0,0-1.51-1.33,1.319,1.319,0,0,0-1.428,1.336l0,.024a1.32,1.32,0,0,0,1.473,1.285,1.343,1.343,0,0,0,1.467-1.3" transform="translate(-24.61 -7.015)"/><path class="a" d="M205.173,62.47l.783-.917a2.749,2.749,0,0,0,1.853.866,1.265,1.265,0,0,0,1.43-1.248l0-.017c0-.733-.615-1.2-1.494-1.2a3.11,3.11,0,0,0-1.33.318l-.76-.5.207-3.534h4.31l0,1.124-3.221,0-.114,1.692a2.947,2.947,0,0,1,1.137-.2,2.225,2.225,0,0,1,2.513,2.261v.024a2.428,2.428,0,0,1-2.678,2.439,3.693,3.693,0,0,1-2.643-1.1" transform="translate(-25.565 -7.033)"/><path class="a" d="M34.244,23.8l.049-.027C46.75,16.535,49.206,10.633,49.645,7.591a3,3,0,0,0-.533-2.6,2.028,2.028,0,0,0-1.539-.6,9.067,9.067,0,0,0-5.585,1.9c-3.481,2.656-6.432,6.707-10.363,14.6l-.022.043-.041.025c-3.959,2.4-14.5,5.334-14.6,5.365l-.388.106.223-.339c.456-.7,3.871-7.133,6.88-12.809,2.864-5.4,5.335-10.058,5.6-10.441.106-.153.065-.451-.117-.819C28.711,1.1,27.517,0,26.712,0a.632.632,0,0,0-.576.337c-.067.114-.166.292-.3.535A96.7,96.7,0,0,1,13.187,18.437c-2.519,2.849-7.82,7.735-11.211,8.889a1.209,1.209,0,0,0-.717.856C1.167,28.619,2.488,29.9,2.87,29.9a2.264,2.264,0,0,0,1.257-.525c.073-.049.145-.1.215-.143a70.264,70.264,0,0,0,13.62-12.417.243.243,0,0,1,.219-.1c.09.006.118.129.031.274-.164.274-2.026,3.561-3.681,6.611C10.022,31.91,3.844,43.29,1.407,44.542a1.132,1.132,0,0,0-.639.827,4.132,4.132,0,0,0,1.306,2.97,1.8,1.8,0,0,0,1.138.639c.5,0,.988-.5,1.613-1.663.531-.983,3.939-6.919,6.678-11.689,1.578-2.742,2.936-5.109,3.186-5.555l.031-.059.063-.019c.184-.063.6-.163,1.232-.313A69.582,69.582,0,0,0,29.068,25.4l.364-.171-.161.368c-.972,2.2-2.188,4.813-3.477,7.577-1.655,3.551-3.534,7.575-5.186,11.391-2.715,6.276-5.673,10.868-7.079,12-1.27,1.026-.251,2.9-.206,2.976a4,4,0,0,0,2.6,2.2.359.359,0,0,0,.074,0h0c.719,0,1.995-1.164,3.967-6.723.337-.95,3.219-7.183,6.557-14.4,2.668-5.773,5.832-12.594,7.7-16.768Zm7.434-13.424c1.757-1.844,3.009-2.329,3.424-2.329a.37.37,0,0,1,.2.051.393.393,0,0,1,.147.3c.077.858-1.869,3.959-3.722,6.075a39.987,39.987,0,0,1-5.9,5.148s3.229-6.5,5.846-9.248"/><path class="a" d="M161.613,38.215a8.03,8.03,0,0,1-3.781,1.518c-1.73.235-2.549-.144-2.343-1.312s.074-2.661-1.379-2.9a3.758,3.758,0,0,0-3.55,1.111c-1.279,1.079-2.251,1.518-2.593,1.452-.707-.137-.578-.745-.807-1.755s-.549-1.842-2.3-1.626c-1.692.207-3.395,1.63-5.085,3.1a16.19,16.19,0,0,1-4.674,3.1,7.661,7.661,0,0,1-3.556.507,1.374,1.374,0,0,1-1.07-.595,13.938,13.938,0,0,0,5.466-3.512c3.072-3.452.566-5.125-.333-5.27-3.524-.576-6.255,2.125-7.109,3.828a9.6,9.6,0,0,0-.909,3.8c-1.12.56-2.858,1.248-4.356,2.04.405-.8,3.563-6.433.585-7.812-2.1-.976-7.9.19-10.17,4.3a10.965,10.965,0,0,1-5.373,2.629,6.554,6.554,0,0,0-1.592-3.608,1.092,1.092,0,0,1-.09-1.325c.429-.854,1.7-1.4,2.192-2.081.815-1.123.662-1.534-.29-2.086s-1.251-.487-1.953.605a23.229,23.229,0,0,1-5.1,5.637,14.907,14.907,0,0,1-5.522,2.856,6.545,6.545,0,0,0-1.591-3.608,1.1,1.1,0,0,1-.092-1.326c.431-.856,1.7-1.4,2.193-2.081.811-1.123.664-1.534-.29-2.086s-1.254-.49-1.955.6a26.972,26.972,0,0,1-3.387,4.094c-.7.688-3.221,2.89-5.287,3.3-1.711.343-2.544-.147-2.34-1.314s.072-2.66-1.382-2.9a3.765,3.765,0,0,0-3.55,1.113c-1.276,1.081-2.247,1.518-2.6,1.45-.7-.137-.577-.743-.8-1.755s-.549-1.842-2.3-1.626c-2.235.276-4.4,2.764-6.706,4.494A9.448,9.448,0,0,1,59.114,41.4a2.261,2.261,0,0,1-.408-.094,15.876,15.876,0,0,0,4.8-4.012c2.926-3.579.573-5.2-.332-5.273a7.956,7.956,0,0,0-7.109,3.828,8.686,8.686,0,0,0-.829,4.733c-2.241.738-4.433.253-4.851-.759-.192-.474,1.747-3.614,2.331-5.015.465-.9-1.461-2.045-2.241-1.847-.305.074-.5.645-.962.688-.481.047-1.259.016-2.473.143A9.587,9.587,0,0,0,40.8,37c-2.172,2.625-2.637,5.571-.012,6.837,3.414,1.643,6.4-1.219,7.328-2.171.178-.184.376-.151.59.031a6.034,6.034,0,0,0,1.934,1.262,9.086,9.086,0,0,0,5.8-.462,3.825,3.825,0,0,0,1.949.547A13.951,13.951,0,0,0,63,42.524a13.456,13.456,0,0,0,4.1-2.277c1.12-.873,2.459-1.844,3.218-1.861.647-.014.288,1.189-.408,2.388s-1.211,2.835-.127,3.215,2.8-.439,4.707-2.337,4.58-3.23,5.52-2.029.307,3.708,5.166,2.3A24.643,24.643,0,0,0,92,38.272c.157-.12.378-.033.547.082a2.89,2.89,0,0,1,.642,3.115c-3.779,1.908-4.766,4.509-3.308,5.454,1.144.742,5.09-.813,5.787-3.985a22.721,22.721,0,0,0,8.684-4.666.535.535,0,0,1,.55.084,2.9,2.9,0,0,1,.639,3.115c-3.777,1.91-4.764,4.508-3.308,5.455,1.146.74,5.134-.995,5.832-4.168a21.011,21.011,0,0,0,4.954-1.912c.319,2.5,4.286,3.734,8.053,1.146a17.682,17.682,0,0,1-.864,1.592s-9.875,5.732-17.115,18.856c-2.143,3.831-4.247,8.717-2.989,10.273,1.842,2.28,6.386,2.525,13.405-10.108a170.433,170.433,0,0,0,8.629-17.932c1.632-.933,4.419-2.327,5.92-3.017a3.113,3.113,0,0,0,2.766,1.4,12.767,12.767,0,0,0,7-1.532,21.947,21.947,0,0,0,2.873-2.19,4.168,4.168,0,0,1,1.937-.936c.647-.016.288,1.189-.409,2.386s-1.207,2.835-.123,3.215,2.8-.437,4.707-2.337,4.578-3.229,5.518-2.029.47,4.1,5.153,2.179a13.009,13.009,0,0,0,4.56-2.819c.6-.566,1.074-1.885-.43-.78M43.836,41.11c-1.244-.15-.493-4.993,4.051-5.491,1.479-.161-2.126,5.72-4.051,5.491m14.1-1.938a5.81,5.81,0,0,1,.836-2.846c.679-.995,2.008-1.655,2.6-1.256.266.18-.024,1.181-1.183,2.427a11.43,11.43,0,0,1-2.251,1.675m49.909,26.567c-1.573,2.193-3.084,3.11-3.787,2.805a1.319,1.319,0,0,1-.131-.066c-1.315-1,3.175-8.67,5.92-12.243,3.162-4.116,6.913-8.328,9.667-10.274-1.648,3.066-9.593,16.884-11.669,19.779m10.12-24.694c-1.244-.147.168-5.16,3.814-5.515,1.479-.145-1.89,5.744-3.814,5.515m13.244-4.705c.539-.682,2.01-1.654,2.6-1.256.321.218-.125,1.616-2.063,2.854-.078.039-.157.082-.236.131a9.912,9.912,0,0,1-1.094.629,3.665,3.665,0,0,1,.8-2.359" transform="translate(-4.783 -3.924)"/></g></svg>