<svg xmlns="http://www.w3.org/2000/svg" width="24" height="22.971" viewBox="0 0 24 22.971"><defs><style>.a{fill:#be9655;}</style></defs><g transform="translate(0 -10.719)"><path class="a" d="M18.5,33.69a1.487,1.487,0,0,1-.691-.171L12,30.465,6.187,33.52a1.481,1.481,0,0,1-2.149-1.561l1.11-6.472L.446,20.9a1.481,1.481,0,0,1,.821-2.526l6.5-.944,2.906-5.888A1.488,1.488,0,0,1,12,10.719a1.472,1.472,0,0,1,1.328.826l2.905,5.888,6.5.944a1.482,1.482,0,0,1,.824,2.524l-4.7,4.586,1.11,6.471a1.49,1.49,0,0,1-.589,1.449A1.472,1.472,0,0,1,18.5,33.69Zm-.69-1.363v0ZM5.174,31.587l-.009,0Zm13.65,0h0ZM12,28.141a1.091,1.091,0,0,1,.508.125l5.063,2.662L16.6,25.29a1.091,1.091,0,0,1,.314-.966l4.1-3.993-5.661-.823a1.091,1.091,0,0,1-.821-.6L12,13.784,9.467,18.913a1.091,1.091,0,0,1-.821.6l-5.66.823,4.1,3.992a1.091,1.091,0,0,1,.314.966l-.967,5.638,5.063-2.661A1.09,1.09,0,0,1,12,28.141Zm9.853-8.079h0ZM1.967,19.339l0,0ZM12.63,12.507l0,.006Z" transform="translate(0)"/></g></svg>