<svg xmlns="http://www.w3.org/2000/svg" width="20.375" height="24" viewBox="0 0 20.375 24"><defs><style>.a{fill:#be9655;}</style></defs><g transform="translate(-37.767)"><g transform="translate(41.426)"><path class="a" d="M120.534,13.055a6.528,6.528,0,1,1,6.528-6.528A6.535,6.535,0,0,1,120.534,13.055Zm0-10.874a4.346,4.346,0,1,0,4.346,4.346A4.351,4.351,0,0,0,120.534,2.182Z" transform="translate(-114.006)"/></g><g transform="translate(37.767 14.189)"><path class="a" d="M57.05,305.419H38.858a1.091,1.091,0,0,1-1.075-1.278l.946-5.425a3.745,3.745,0,0,1,3.7-3.107H53.483a3.745,3.745,0,0,1,3.7,3.107l.946,5.425a1.091,1.091,0,0,1-1.075,1.278Zm-16.895-2.182h15.6l-.723-4.147a1.567,1.567,0,0,0-1.546-1.3H42.425a1.567,1.567,0,0,0-1.546,1.3Z" transform="translate(-37.767 -295.608)"/></g></g></svg>