<svg xmlns="http://www.w3.org/2000/svg" width="20.483" height="18" viewBox="0 0 20.483 18"><defs><style>.a{fill:#be9655;}</style></defs><g transform="translate(0 -30.306)"><path class="a" d="M10.241,48.306a.93.93,0,0,1-.4-.089c-.415-.2-10.155-4.872-9.837-12.282A5.623,5.623,0,0,1,5.59,30.306a8.913,8.913,0,0,1,4.651,1.484,8.913,8.913,0,0,1,4.651-1.484,5.623,5.623,0,0,1,5.582,5.63c.318,7.41-9.422,12.086-9.837,12.282A.932.932,0,0,1,10.241,48.306ZM5.59,32.168a3.759,3.759,0,0,0-3.72,3.789c0,.014,0,.028,0,.042-.246,5.426,6.628,9.41,8.373,10.331,1.744-.921,8.619-4.905,8.373-10.331,0-.014,0-.028,0-.042a3.759,3.759,0,0,0-3.72-3.789,7.382,7.382,0,0,0-4.066,1.485.934.934,0,0,1-1.17,0A7.38,7.38,0,0,0,5.59,32.168Z" transform="translate(0)"/></g></svg>