<svg xmlns="http://www.w3.org/2000/svg" width="43" height="28" viewBox="0 0 43 28"><defs><style>.a{fill:#0086cb;}.b{fill:#fff;}</style></defs><path class="a" d="M40,0H3A2.946,2.946,0,0,0,0,3V25a3.009,3.009,0,0,0,3,3H40a2.946,2.946,0,0,0,3-3V3A3.009,3.009,0,0,0,40,0Z"/><rect class="b" width="0.55" height="0.001" transform="translate(24.478 9.5)"/><path class="b" d="M36.93,9.5H35.55v.025H33.578l-1.25,1.325-1.22-1.325h-6.63V9.5H20.67l-1.041,2.161L18.563,9.511H13.718V10.78L13.161,9.5H9.2L7.17,14V14l-1.1,2.117V18.5h1.1v0H9.955l.682-1.582h1.089l.645,1.582h5.442v-.783l.365.783H21.09l.336-.732v.674h.029v.06h9.527l1.25-1.369L33.4,18.5h3.528V16.3l-2.2-2.3,2.2-2.292V9.5ZM24.2,17.188H22.283V12.495l-2.052,4.688H18.762l-2.246-4.769v4.758H13.348L12.707,15.6H9.481L8.85,17.182H7.18l2.847-6.359h2.139l2.684,6.068V10.823h2.672L19.5,15.035l1.982-4.212H24.2v6.365ZM35.55,11.536l-2.292,2.432,2.292,2.6v.612H34.085l-1.9-2.064-1.95,2.049H25.3V10.826h5.14l1.8,2.027L34.1,10.818h1.45Z"/><path class="b" d="M26.947,12.146v1.3h2.3V14.54h-2.3v1.321h2.435l1.787-1.893-1.582-1.815Z"/><path class="b" d="M10.093,14.248h1.968l-1-2.128Z"/></svg>