<svg xmlns="http://www.w3.org/2000/svg" width="43" height="28" viewBox="0 0 43 28"><defs><style>.a{fill:#ffed00;}.b{fill:#0061ad;}</style></defs><path class="a" d="M40,0H3A2.947,2.947,0,0,0,0,3V25a3.009,3.009,0,0,0,3,3H40a2.946,2.946,0,0,0,3-3V3A3.009,3.009,0,0,0,40,0Z"/><path class="b" d="M26.836,7.465l1.84,1.263,1.8-1.2,0-2.473L26.836,7.465ZM16.187,20.575l-1.832-1.253-1.836,1.253V23l3.668-2.425Zm6.971-10.7,1.8,1.209-8.543,5.781,5.277,3.564,2.48-1.683-1.928-1.274,4.447-2.981,3.719,2.468-8.986,5.988L12.556,17l10.6-7.127Zm-3.365,8.2-1.8-1.21,8.543-5.781L21.258,7.521,18.779,9.2,20.7,10.477,16.26,13.456l-3.719-2.468L21.494,5l8.887,5.975-10.588,7.1Z"/></svg>