<svg xmlns="http://www.w3.org/2000/svg" width="43" height="28" viewBox="0 0 43 28"><defs><style>.a{opacity:0.1;}.b{fill:#fff;}.c{fill:#1f191a;}</style></defs><path class="a" d="M40,0H3A2.946,2.946,0,0,0,0,3V25a3.009,3.009,0,0,0,3,3H40a2.947,2.947,0,0,0,3-3V3A3.009,3.009,0,0,0,40,0Z"/><path class="b" d="M40,1a2.005,2.005,0,0,1,2,2V25a2.006,2.006,0,0,1-2,2H3a2.006,2.006,0,0,1-2-2V3A2.005,2.005,0,0,1,3,1H40"/><path class="c" d="M13.81,21.969a1.29,1.29,0,0,0,.561-.479,1.263,1.263,0,0,0,.207-.7,1.228,1.228,0,0,0-.17-.64,1.364,1.364,0,0,0-.988-.681,6.256,6.256,0,0,0-.967-.055H10.271v5.461H12.13c.7,0,1.145-.019,1.328-.037a1.544,1.544,0,0,0,.74-.26,1.469,1.469,0,0,0,.473-.563,1.628,1.628,0,0,0,.174-.725,1.318,1.318,0,0,0-.268-.822A1.433,1.433,0,0,0,13.81,21.969Zm-2.437-1.651h.635c.518,0,.832.008.941.02a.627.627,0,0,1,.416.192.592.592,0,0,1,.139.411.581.581,0,0,1-.16.427.727.727,0,0,1-.445.194c-.1.012-.373.02-.8.02h-.725V20.318ZM13.551,23.7a.69.69,0,0,1-.4.217,4.918,4.918,0,0,1-.756.033H11.374V22.49h.891a3.785,3.785,0,0,1,.979.077.694.694,0,0,1,.346.25.729.729,0,0,1,.119.418A.676.676,0,0,1,13.551,23.7Z"/><path class="c" d="M17.564,20.825a2.166,2.166,0,0,0-1.053.257,1.788,1.788,0,0,0-.729.745,2.154,2.154,0,0,0-.256,1.009,2.4,2.4,0,0,0,.258,1.158,1.7,1.7,0,0,0,.748.72,2.3,2.3,0,0,0,1.039.247,1.966,1.966,0,0,0,1.459-.59,2.049,2.049,0,0,0,.578-1.489,2.012,2.012,0,0,0-.572-1.474A1.976,1.976,0,0,0,17.564,20.825Zm.692,2.969a.913.913,0,0,1-1.378,0,1.6,1.6,0,0,1,0-1.8.893.893,0,0,1,.69-.313.881.881,0,0,1,.688.313,1.306,1.306,0,0,1,.277.894A1.326,1.326,0,0,1,18.256,23.794Z"/><rect class="c" width="1.047" height="5.461" transform="translate(20.43 19.41)"/><path class="c" d="M25.451,21.408a1.755,1.755,0,0,0-1.393-.583,1.69,1.69,0,0,0-1.3.558,2.185,2.185,0,0,0-.514,1.539,2.251,2.251,0,0,0,.391,1.363,1.77,1.77,0,0,0,1.527.676,1.86,1.86,0,0,0,1.086-.3,1.7,1.7,0,0,0,.635-.871l-1.043-.176a.831.831,0,0,1-.252.431.636.636,0,0,1-.414.134.792.792,0,0,1-.6-.258,1.052,1.052,0,0,1-.254-.725h2.623A2.57,2.57,0,0,0,25.451,21.408Zm-2.115,1.146a.97.97,0,0,1,.219-.678.753.753,0,0,1,1.109-.013,1,1,0,0,1,.234.69H23.336Z"/><path class="c" d="M28.182,24.092A.3.3,0,0,1,28,24.04a.239.239,0,0,1-.094-.131,3.984,3.984,0,0,1-.02-.565V21.749H28.6v-.835H27.89v-1.4l-1.049.61v.786H26.36v.835h.481v1.725a5,5,0,0,0,.033.737.915.915,0,0,0,.146.407.75.75,0,0,0,.334.247,1.325,1.325,0,0,0,.51.094,2.1,2.1,0,0,0,.826-.156l-.09-.813A1.3,1.3,0,0,1,28.182,24.092Z"/><path class="c" d="M31.129,20.825a2.16,2.16,0,0,0-1.053.257,1.776,1.776,0,0,0-.729.745,2.133,2.133,0,0,0-.258,1.009,2.4,2.4,0,0,0,.258,1.158,1.68,1.68,0,0,0,.75.72,2.288,2.288,0,0,0,1.035.247,1.957,1.957,0,0,0,1.459-.59,2.042,2.042,0,0,0,.58-1.489,2.02,2.02,0,0,0-.572-1.474A1.978,1.978,0,0,0,31.129,20.825Zm.691,2.969a.912.912,0,0,1-1.377,0,1.594,1.594,0,0,1,0-1.8.914.914,0,0,1,1.377,0,1.31,1.31,0,0,1,.275.894A1.325,1.325,0,0,1,31.82,23.794Z"/><rect class="c" width="0.631" height="22" transform="translate(7.133 3)"/><rect class="c" width="0.633" height="22" transform="translate(35.234 3)"/><rect class="c" width="0.629" height="14.422" transform="translate(34.08 3)"/><rect class="c" width="1.814" height="14.422" transform="translate(31.482 3)"/><rect class="c" width="0.631" height="14.422" transform="translate(28.289 3)"/><rect class="c" width="2.209" height="14.422" transform="translate(25.393 3)"/><rect class="c" width="0.631" height="14.422" transform="translate(23.133 3)"/><rect class="c" width="1.857" height="14.422" transform="translate(20.809 3)"/><rect class="c" width="0.947" height="14.422" transform="translate(8.656 3)"/><rect class="c" width="0.633" height="14.422" transform="translate(10.393 3)"/><rect class="c" width="0.631" height="14.422" transform="translate(12.394 3)"/><rect class="c" width="0.631" height="14.422" transform="translate(18.394 3)"/><rect class="c" width="0.629" height="14.422" transform="translate(16.922 3)"/><rect class="c" width="1.967" height="14.422" transform="translate(13.75 3)"/><rect class="c" width="0.867" height="14.422" transform="translate(30.275 3)"/></svg>