<svg xmlns="http://www.w3.org/2000/svg" width="43" height="28" viewBox="0 0 43 28"><defs><style>.a{fill:#ffc904;}.b{fill:#00a2de;}.c{fill:#ed4023;}.d{fill:#fff;}</style></defs><path d="M40,0H3A2.947,2.947,0,0,0,0,3V25a3.009,3.009,0,0,0,3,3H40a2.946,2.946,0,0,0,3-3V3A3.009,3.009,0,0,0,40,0Z"/><path class="a" d="M10.725,10.65a3.535,3.535,0,0,1,4.58,2.644l2.42-.493A6,6,0,0,0,9.944,8.308Z"/><path class="b" d="M7.869,18.5l1.637-1.851a3.53,3.53,0,0,1,0-5.287L7.867,9.507a6,6,0,0,0,0,8.988"/><path class="c" d="M15.3,14.708a3.529,3.529,0,0,1-3.457,2.822,3.489,3.489,0,0,1-1.121-.182l-.783,2.344A6.008,6.008,0,0,0,17.725,15.2Z"/><path class="d" d="M19.842,16.723a4.094,4.094,0,0,1-.252-.485,3.679,3.679,0,0,1,1.836-4.784,3.684,3.684,0,0,1,3.385.246,3.616,3.616,0,0,1,1.51,1.824c.047.108.086.223.127.32Zm2.205-3.841a1.823,1.823,0,0,0-1.1,1.936l3.322-1.431A1.763,1.763,0,0,0,22.047,12.882Zm2.631,3.11s0,0,0,0l-.068-.046a1.953,1.953,0,0,1-.9.751,1.744,1.744,0,0,1-1.924-.193l-.047.069v0l-.844,1.261a3.641,3.641,0,0,0,5.068-.984Z"/><path class="d" d="M28.756,9.6v7.011l1.09.441-.619,1.445-1.2-.5a1.384,1.384,0,0,1-.594-.5,1.567,1.567,0,0,1-.232-.869V9.6Z"/><path class="d" d="M31.58,14.82a1.983,1.983,0,0,1,.68-1.5l-1.117-1.247a3.665,3.665,0,0,0,0,5.485l1.117-1.247A1.975,1.975,0,0,1,31.58,14.82Z"/><path class="d" d="M33.566,16.81a1.987,1.987,0,0,1-.631-.1L32.4,18.295a3.668,3.668,0,0,0,4.754-2.735l-1.643-.336A1.987,1.987,0,0,1,33.566,16.81Z"/><path class="d" d="M33.57,11.159a3.639,3.639,0,0,0-1.16.188l.529,1.589a2.012,2.012,0,0,1,.629-.1,1.987,1.987,0,0,1,1.947,1.593l1.641-.333A3.664,3.664,0,0,0,33.57,11.159Z"/></svg>