<svg xmlns="http://www.w3.org/2000/svg" width="16" height="12.077" viewBox="0 0 16 12.077"><defs><style>.a{fill:#be9655;}</style></defs><path class="a" d="M16,62.016c0-.014,0-.028,0-.041s0-.021,0-.031,0-.026-.006-.038,0-.022-.006-.032-.006-.024-.009-.036-.006-.022-.009-.033-.008-.022-.012-.034-.008-.022-.013-.033-.01-.021-.015-.031-.01-.022-.016-.032l-.017-.028-.021-.033-.019-.025-.025-.032-.006-.008-.016-.016-.027-.028-.026-.024-.027-.023-.03-.022-.028-.019-.032-.019-.03-.017-.031-.015-.034-.015-.03-.011-.038-.012-.03-.008L15.4,61.31l-.032,0-.038,0-.036,0H.7l-.039,0-.035,0L.6,61.31l-.037.008-.032.008-.036.011-.032.012-.033.014-.032.016L.365,61.4l-.032.02-.027.018-.03.023-.026.022L.222,61.5.2,61.531l-.016.016-.006.008-.025.032-.019.025-.021.033-.017.028c-.006.011-.011.022-.016.033s-.01.021-.015.031-.009.022-.013.033-.009.022-.012.033-.006.022-.009.033-.007.024-.009.036,0,.022-.006.032,0,.026-.006.038,0,.021,0,.031S0,62,0,62.016s0,.006,0,.01V72.648a.727.727,0,0,0,.727.727H15.273A.727.727,0,0,0,16,72.648V62.025S16,62.019,16,62.016Zm-2.665.737L8,67.411,2.666,62.753ZM1.455,71.92V63.626l6.067,5.3a.727.727,0,0,0,.957,0l6.067-5.3V71.92Z" transform="translate(0 -61.298)"/></svg>