<svg xmlns="http://www.w3.org/2000/svg" width="43" height="28" viewBox="0 0 43 28"><defs><style>.a{fill:#ff8204;}.b{fill:#263392;}.c{fill:#fe0;}</style></defs><path class="a" d="M40,0H3A2.946,2.946,0,0,0,0,3V25a3.009,3.009,0,0,0,3,3H40a2.946,2.946,0,0,0,3-3V3A3.009,3.009,0,0,0,40,0Z"/><path class="b" d="M14.529,3l13.979.008A4.011,4.011,0,0,1,32.5,7.021V21a4.018,4.018,0,0,1-4.011,4L14.5,24.991a4.025,4.025,0,0,1-4-4.011L10.519,7a4.01,4.01,0,0,1,4.01-4Z"/><path class="c" d="M29.408,13.031H27.813l-.659,1.253h1.119l1.135-1.253Zm1.055,2.038h-1.55v3.352a1.172,1.172,0,0,1-1.2,1.316c-.486,0-1.018-.181-1.008-1.073v-3.6h-1.56l-.009,3.82a1.888,1.888,0,0,0,2.019,2.136,1.934,1.934,0,0,0,1.793-.973h.019v.81h1.5V15.069Z"/><path class="c" d="M23.929,16.6c0-1.433-1.506-1.694-2.344-1.694-1.216,0-2.47.263-2.658,2.038h1.5a.842.842,0,0,1,.965-.811c.4,0,1.026.035,1.026.675,0,.326-.307.424-.559.46l-1.4.208a1.79,1.79,0,0,0-1.732,1.856,1.654,1.654,0,0,0,1.8,1.694,2.417,2.417,0,0,0,1.911-.838,2.651,2.651,0,0,0,.153.676l1.333-.01c0-.639-.009-1.107-.009-1.116V16.6Z"/><path class="c" d="M17.305,13.031H15.754V15.06h-.8v1.09h.794v3.523c0,.749.242,1.263,1.586,1.263h.208c.242,0,.5-.018.729-.027V19.747c-.108.01-.225.027-.325.027-.63,0-.648-.127-.648-.478l.009-3.146h.974V15.061h-.974v-2.03Z"/><path class="c" d="M14.231,13.023H12.556l-.01,7.831h1.677Z"/><path class="b" d="M22.423,18.791v-.749a2.349,2.349,0,0,1-1.063.307c-.586.1-1.063.252-1.063.884a.684.684,0,0,0,.729.694,1.288,1.288,0,0,0,1.4-1.136Z"/></svg>