<svg xmlns="http://www.w3.org/2000/svg" width="51.609" height="40" viewBox="0 0 51.609 40"><defs><style>.a{fill:#ffa400;}.b{fill:#003a70;}</style></defs><g transform="translate(-0.329 -0.313)"><g transform="translate(34.953 6.955)"><path class="a" d="M121.037,28.228h-3V26.689a2.229,2.229,0,0,0-4.459,0v1.539h-3V26.689a5.227,5.227,0,1,1,10.454,0Z" transform="translate(-110.583 -21.462)"/></g><path class="b" d="M117.421,43.007H104.549a1,1,0,0,0-1,1v9.522a1,1,0,0,0,1,1h12.872a1,1,0,0,0,1-1V44.006A1,1,0,0,0,117.421,43.007Zm-5.784,6.252v1.29a.652.652,0,1,1-1.3,0v-1.29a1.325,1.325,0,1,1,1.3,0Z" transform="translate(-70.806 -29.287)"/><path class="a" d="M93.8,34.5H90.694a.912.912,0,1,1,0-1.824H93.8a.912.912,0,0,1,0,1.824Z" transform="translate(-61.362 -22.201)"/><path class="a" d="M102.186,14.531a.908.908,0,0,1-.579-.208L99.15,12.3a.912.912,0,0,1,1.158-1.409l2.457,2.02a.912.912,0,0,1-.58,1.616Z" transform="translate(-67.56 -7.116)"/><path class="a" d="M125.234,5.267a.912.912,0,0,1-.912-.912V1.225a.912.912,0,0,1,1.824,0V4.356A.912.912,0,0,1,125.234,5.267Z" transform="translate(-85.055)"/><g transform="translate(44.82 3.571)"><path class="a" d="M142.915,14.531a.912.912,0,0,1-.58-1.616l2.457-2.02a.912.912,0,0,1,1.158,1.409l-2.457,2.02A.908.908,0,0,1,142.915,14.531Z" transform="translate(-142.003 -10.687)"/></g><path class="a" d="M152.926,34.5H149.79a.912.912,0,0,1,0-1.824h3.136a.912.912,0,1,1,0,1.824Z" transform="translate(-101.899 -22.201)"/><path class="b" d="M.329,57.2V47.065H2.792v8H6.715V57.2H.329Z" transform="translate(0 -32.07)"/><path class="b" d="M30.251,59.791v.286a2.586,2.586,0,0,1-.014.272H25.068a1.245,1.245,0,0,0,.179.544,1.543,1.543,0,0,0,.387.422,1.9,1.9,0,0,0,1.138.379,1.974,1.974,0,0,0,.945-.208,1.864,1.864,0,0,0,.63-.537l1.632,1.031a3.3,3.3,0,0,1-1.324,1.124,4.384,4.384,0,0,1-1.912.394,4.568,4.568,0,0,1-1.518-.251,3.679,3.679,0,0,1-1.253-.73,3.377,3.377,0,0,1-.845-1.181,3.952,3.952,0,0,1-.308-1.6,4.015,4.015,0,0,1,.3-1.582,3.581,3.581,0,0,1,.816-1.2,3.639,3.639,0,0,1,1.217-.766,4.164,4.164,0,0,1,1.518-.272,3.844,3.844,0,0,1,1.446.265,3.15,3.15,0,0,1,1.131.766,3.544,3.544,0,0,1,.737,1.217A4.686,4.686,0,0,1,30.251,59.791Zm-2.162-.9a1.41,1.41,0,0,0-.351-.959,1.324,1.324,0,0,0-1.052-.4,1.782,1.782,0,0,0-.63.107,1.634,1.634,0,0,0-.5.294,1.452,1.452,0,0,0-.344.437,1.28,1.28,0,0,0-.143.523h3.021Z" transform="translate(-15.428 -38.138)"/><path class="b" d="M50.922,54.289V57.02a1.229,1.229,0,0,0,.193.755.828.828,0,0,0,.694.252A2.49,2.49,0,0,0,52.175,58a1.266,1.266,0,0,0,.322-.086l.029,1.718a3.907,3.907,0,0,1-.616.15,4.354,4.354,0,0,1-.745.064,3.509,3.509,0,0,1-1.2-.179,1.858,1.858,0,0,1-.78-.517,2.021,2.021,0,0,1-.422-.8,3.915,3.915,0,0,1-.129-1.041V54.289H47.486V52.543h1.131V50.667h2.305v1.876H52.6V54.29H50.922Z" transform="translate(-32.348 -34.541)"/><path class="b" d="M77.151,58.246a2.625,2.625,0,0,0-.673-.458,1.859,1.859,0,0,0-.816-.186,1.437,1.437,0,0,0-.609.129.452.452,0,0,0-.279.444.442.442,0,0,0,.308.43,6.715,6.715,0,0,0,1,.286,5.417,5.417,0,0,1,.809.243,2.856,2.856,0,0,1,.737.415,1.99,1.99,0,0,1,.53.63,1.849,1.849,0,0,1,.2.888,2.137,2.137,0,0,1-.981,1.89,3.059,3.059,0,0,1-.981.415A4.72,4.72,0,0,1,75.3,63.5a5.374,5.374,0,0,1-1.711-.279,3.589,3.589,0,0,1-1.4-.823l1.317-1.389a2.629,2.629,0,0,0,.773.573,2.148,2.148,0,0,0,.974.229,1.279,1.279,0,0,0,.566-.136.489.489,0,0,0,.279-.48.514.514,0,0,0-.344-.487,6.177,6.177,0,0,0-1.074-.329,5.516,5.516,0,0,1-.745-.229,2.346,2.346,0,0,1-.666-.387,1.914,1.914,0,0,1-.48-.6,1.836,1.836,0,0,1-.186-.859,2.085,2.085,0,0,1,.272-1.1,2.3,2.3,0,0,1,.7-.737,3.118,3.118,0,0,1,.952-.422,4.118,4.118,0,0,1,1.038-.136,5.02,5.02,0,0,1,1.568.251,3.387,3.387,0,0,1,1.3.752Z" transform="translate(-49.299 -38.14)"/><path class="b" d="M.329,94.6V84.465H7.145v2.062H2.691v1.918H6.9v1.961H2.691v2.1H7.4V94.6H.329Z" transform="translate(0 -57.725)"/><path class="b" d="M32.336,100.733V96.838a3.172,3.172,0,0,0-.05-.573,1.6,1.6,0,0,0-.165-.48.859.859,0,0,0-.322-.329,1.022,1.022,0,0,0-.523-.122,1.188,1.188,0,0,0-.551.122,1.118,1.118,0,0,0-.394.337,1.522,1.522,0,0,0-.236.494,2.128,2.128,0,0,0-.079.58v3.866H27.654V93.6h2.277v.988h.029a2.369,2.369,0,0,1,.337-.451,2.012,2.012,0,0,1,.487-.379,3.035,3.035,0,0,1,.609-.258,2.4,2.4,0,0,1,.7-.1,2.632,2.632,0,0,1,1.217.258,2.33,2.33,0,0,1,.809.666,2.625,2.625,0,0,1,.444.938,4.244,4.244,0,0,1,.136,1.06v4.41Z" transform="translate(-18.744 -63.856)"/><path class="b" d="M57.785,95.843a1.429,1.429,0,0,0-.544-.415,1.67,1.67,0,0,0-.7-.157,1.485,1.485,0,0,0-.673.15,1.631,1.631,0,0,0-.516.4,1.884,1.884,0,0,0-.336.58,2,2,0,0,0-.122.7,2.109,2.109,0,0,0,.115.7,1.707,1.707,0,0,0,.337.58,1.6,1.6,0,0,0,.53.394,1.623,1.623,0,0,0,.694.143,1.946,1.946,0,0,0,.709-.136,1.359,1.359,0,0,0,.566-.394l1.3,1.589a3.067,3.067,0,0,1-1.145.673,4.511,4.511,0,0,1-1.489.243,4.717,4.717,0,0,1-1.577-.258,3.666,3.666,0,0,1-1.272-.752,3.528,3.528,0,0,1-.85-1.2,4.2,4.2,0,0,1,0-3.165,3.529,3.529,0,0,1,.85-1.2,3.755,3.755,0,0,1,1.272-.759,4.561,4.561,0,0,1,1.563-.265,4.119,4.119,0,0,1,.766.072,5.146,5.146,0,0,1,.73.193,3.336,3.336,0,0,1,.644.3,2.723,2.723,0,0,1,.508.393Z" transform="translate(-35.789 -63.791)"/><path class="b" d="M81.112,95.535a1.859,1.859,0,0,0-.308-.057q-.15-.014-.294-.014a1.679,1.679,0,0,0-.795.171,1.617,1.617,0,0,0-.515.414,1.565,1.565,0,0,0-.279.529,1.76,1.76,0,0,0-.086.5v3.656H76.488V93.611H78.75v1.031h.029a2.32,2.32,0,0,1,.773-.894,1.992,1.992,0,0,1,1.16-.346c.1,0,.188.005.279.014a1.107,1.107,0,0,1,.222.043Z" transform="translate(-52.242 -63.856)"/><path class="b" d="M97.94,102.243a6.242,6.242,0,0,1-.48.995,3,3,0,0,1-.63.745,2.488,2.488,0,0,1-.859.465,3.85,3.85,0,0,1-1.167.158,5.612,5.612,0,0,1-.68-.043,4.2,4.2,0,0,1-.609-.115l.258-1.976a2.63,2.63,0,0,0,.379.093,2.277,2.277,0,0,0,.379.036,1.063,1.063,0,0,0,.788-.251,2.032,2.032,0,0,0,.415-.709l.229-.587-2.978-7.016h2.606l1.589,4.582h.043l1.418-4.582h2.491Z" transform="translate(-63.559 -64.293)"/><path class="b" d="M128.822,97.137a4.508,4.508,0,0,1-.229,1.432,3.688,3.688,0,0,1-.666,1.21,3.293,3.293,0,0,1-1.067.838,3.162,3.162,0,0,1-1.432.315,3,3,0,0,1-1.246-.265,2.221,2.221,0,0,1-.916-.723h-.029v4.224H120.89V93.6h2.233v.873h.043a2.9,2.9,0,0,1,.909-.752,2.768,2.768,0,0,1,1.367-.322,3.213,3.213,0,0,1,1.4.3,3.163,3.163,0,0,1,1.066.816,3.714,3.714,0,0,1,.673,1.2A4.309,4.309,0,0,1,128.822,97.137Zm-2.276,0a2.159,2.159,0,0,0-.107-.673,1.752,1.752,0,0,0-.315-.58,1.577,1.577,0,0,0-1.253-.566,1.581,1.581,0,0,0-.716.157,1.705,1.705,0,0,0-.537.415,1.891,1.891,0,0,0-.344.587,1.919,1.919,0,0,0,0,1.346,1.9,1.9,0,0,0,.344.587,1.712,1.712,0,0,0,.537.415,1.58,1.58,0,0,0,.716.157,1.614,1.614,0,0,0,.73-.157,1.557,1.557,0,0,0,.523-.415,1.825,1.825,0,0,0,.315-.594A2.225,2.225,0,0,0,126.545,97.137Z" transform="translate(-82.701 -63.854)"/><path class="b" d="M150.588,91.689V94.42a1.229,1.229,0,0,0,.193.755.828.828,0,0,0,.694.252,2.49,2.49,0,0,0,.365-.029,1.249,1.249,0,0,0,.322-.086l.029,1.718a3.871,3.871,0,0,1-.616.15,4.354,4.354,0,0,1-.745.064,3.5,3.5,0,0,1-1.2-.179,1.858,1.858,0,0,1-.78-.517,2.021,2.021,0,0,1-.422-.8A3.915,3.915,0,0,1,148.3,94.7V91.69h-1.145V89.943h1.131V88.067h2.305v1.876h1.675V91.69h-1.675Z" transform="translate(-100.715 -60.196)"/><path class="b" d="M67.875,46.446A1.2,1.2,0,0,0,66.619,47.6a1.088,1.088,0,0,0,1.156,1.142.839.839,0,0,0,.167-.016,1.306,1.306,0,0,1-1.058.941l-.094.015v1.09l.122-.012a2.574,2.574,0,0,0,1.514-.7,2.855,2.855,0,0,0,.806-2.12A1.386,1.386,0,0,0,67.875,46.446Z" transform="translate(-45.473 -31.646)"/></g></svg>