<svg xmlns="http://www.w3.org/2000/svg" width="43" height="28" viewBox="0 0 43 28"><defs><style>.a{opacity:0.1;}.b{fill:#fff;}.c{fill:#ff0015;}.d{fill:#ff9e00;}.e{fill:#ff5f00;}</style></defs><path class="a" d="M40,0H3A2.946,2.946,0,0,0,0,3V25a3.009,3.009,0,0,0,3,3H40a2.946,2.946,0,0,0,3-3V3A3.009,3.009,0,0,0,40,0Z"/><path class="b" d="M40,1a2.005,2.005,0,0,1,2,2V25a2.006,2.006,0,0,1-2,2H3a2.006,2.006,0,0,1-2-2V3A2.005,2.005,0,0,1,3,1H40"/><circle class="c" cx="7.5" cy="7.5" r="7.5" transform="translate(9.714 6.5)"/><circle class="d" cx="7.5" cy="7.5" r="7.5" transform="translate(18.286 6.5)"/><path class="e" d="M24.714,14A7.31,7.31,0,0,0,21.5,7.894,7.608,7.608,0,0,0,18.286,14,7.461,7.461,0,0,0,21.5,20.107,7.313,7.313,0,0,0,24.714,14Z"/></svg>