<svg xmlns="http://www.w3.org/2000/svg" width="16" height="16" viewBox="0 0 16 16"><defs><style>.a{fill:#be9655;}</style></defs><g transform="translate(0 0)"><path class="a" d="M12.55,16a7.6,7.6,0,0,1-3.075-.821,18.313,18.313,0,0,1-5.043-3.61h0A18.312,18.312,0,0,1,.821,6.526C-.025,4.7-.225,3.175.259,2.218.369,2,1.379.1,3.048,0A3.056,3.056,0,0,1,5.7,1.709l.05.076a3.424,3.424,0,0,1,.768,1.894A3.4,3.4,0,0,1,5.3,5.952c.058.23.391.9,2.111,2.624l.007.007c1.737,1.737,2.416,2.06,2.632,2.117A3.4,3.4,0,0,1,12.322,9.48h.015a3.447,3.447,0,0,1,1.879.768l.076.05A3.055,3.055,0,0,1,16,12.952c-.094,1.669-2,2.68-2.215,2.789A2.716,2.716,0,0,1,12.55,16ZM3.169,1.455H3.13c-.641.036-1.3.889-1.573,1.419-.516,1.018.748,4.511,3.9,7.665h0c3.154,3.154,6.646,4.418,7.665,3.9.53-.268,1.383-.932,1.419-1.573.03-.531-.555-1.031-1.051-1.356l-.077-.051a2.507,2.507,0,0,0-1.08-.529h0c-.308,0-.76.3-1.343.883-.553.553-1.374.454-2.438-.294A17.347,17.347,0,0,1,6.4,9.62l-.007-.007c-1.646-1.647-3.31-3.5-2.205-4.6.583-.583.88-1.035.883-1.343a2.483,2.483,0,0,0-.529-1.083l-.051-.077C4.169,2.024,3.686,1.455,3.169,1.455Z" transform="translate(0 0)"/></g></svg>