<svg xmlns="http://www.w3.org/2000/svg" width="12.526" height="16" viewBox="0 0 12.526 16"><defs><style>.a{fill:#be9655;}</style></defs><g transform="translate(-54.282)"><g transform="translate(57.486 2.948)"><path class="a" d="M157.454,98.23a3.059,3.059,0,1,1,3.059-3.059A3.063,3.063,0,0,1,157.454,98.23Zm0-4.664a1.6,1.6,0,1,0,1.6,1.6A1.607,1.607,0,0,0,157.454,93.566Z" transform="translate(-154.395 -92.111)"/></g><g transform="translate(54.282)"><path class="a" d="M60.545,16h0a.727.727,0,0,1-.455-.16c-.237-.19-5.808-4.712-5.808-9.718A5.754,5.754,0,0,1,56.473,1.4a6.621,6.621,0,0,1,8.145,0,5.754,5.754,0,0,1,2.191,4.722c0,5.006-5.571,9.528-5.808,9.718A.727.727,0,0,1,60.545,16Zm0-.727h0Zm0,0h0Zm-.455-.568Zm.455-13.251a4.615,4.615,0,0,0-4.808,4.668c0,3.544,3.53,7.04,4.808,8.19,1.278-1.15,4.808-4.646,4.808-8.19A4.615,4.615,0,0,0,60.545,1.455Z" transform="translate(-54.282)"/></g></g></svg>