<svg xmlns="http://www.w3.org/2000/svg" width="47.664" height="40" viewBox="0 0 47.664 40"><defs><style>.a{fill:#1b3e60;}</style></defs><g transform="translate(-0.108 -0.313)"><path class="a" d="M3.022,50.454a1.23,1.23,0,0,1,.747-.18,5.849,5.849,0,0,1,2.36.627l.807-2.033a7.559,7.559,0,0,0-3.087-.7,4.32,4.32,0,0,0-2.693.753,2.5,2.5,0,0,0-.98,2.1,3.1,3.1,0,0,0,.23,1.247,2.58,2.58,0,0,0,.707.934,6.226,6.226,0,0,0,1.43.84q1.053.473,1.3.627a1.271,1.271,0,0,1,.353.3.577.577,0,0,1,.11.35.625.625,0,0,1-.274.523,1.451,1.451,0,0,1-.86.2,5.826,5.826,0,0,1-1.494-.217,7.817,7.817,0,0,1-1.567-.6v2.347a6.065,6.065,0,0,0,1.374.477,8.228,8.228,0,0,0,1.634.137,4.919,4.919,0,0,0,2.034-.39,3.011,3.011,0,0,0,1.327-1.093,2.877,2.877,0,0,0,.46-1.61,2.641,2.641,0,0,0-.49-1.637A4.453,4.453,0,0,0,4.7,52.242a11.3,11.3,0,0,1-1.61-.827.645.645,0,0,1-.3-.513A.546.546,0,0,1,3.022,50.454Z" transform="translate(0 -32.827)"/><path class="a" d="M27.371,48.223q1.393,0,1.393-1.147a1.093,1.093,0,0,0-.334-.867,2.07,2.07,0,0,0-2.113-.007,1.1,1.1,0,0,0-.327.873Q25.991,48.223,27.371,48.223Z" transform="translate(-17.755 -31.282)"/><rect class="a" width="2.607" height="7.554" transform="translate(8.303 17.674)"/><path class="a" d="M44.067,59.558v-1.9a3.878,3.878,0,0,1-1.26.26q-.707,0-.707-.734v-2.94h1.853V52.291H42.1V50.777H40.394l-.674,1.587-1.16.82v1.06h.913v3.114a2.882,2.882,0,0,0,.58,1.977,2.439,2.439,0,0,0,1.894.643,5.682,5.682,0,0,0,1.117-.1A5.088,5.088,0,0,0,44.067,59.558Z" transform="translate(-26.377 -34.617)"/><path class="a" d="M66.06,60.567a6.24,6.24,0,0,1-1.25.443,5.749,5.749,0,0,1-1.263.13,1.816,1.816,0,0,1-1.19-.36,1.293,1.293,0,0,1-.464-.993h4.661v-1.16a3.384,3.384,0,0,0-.93-2.564,3.661,3.661,0,0,0-2.637-.89,3.615,3.615,0,0,0-2.76,1.023,4.117,4.117,0,0,0-.967,2.937A3.778,3.778,0,0,0,60.3,61.992a4.056,4.056,0,0,0,2.93,1,8.756,8.756,0,0,0,1.56-.12,4.581,4.581,0,0,0,1.266-.433V60.567Zm-3.75-3.33a1.084,1.084,0,0,1,.77-.29,1.023,1.023,0,0,1,.8.327,1.3,1.3,0,0,1,.31.873h-2.24A1.363,1.363,0,0,1,62.309,57.237Z" transform="translate(-40.576 -37.633)"/><path class="a" d="M3.022,88.043a1.23,1.23,0,0,1,.747-.18,5.849,5.849,0,0,1,2.36.627l.807-2.034a7.559,7.559,0,0,0-3.087-.7,4.32,4.32,0,0,0-2.693.753,2.5,2.5,0,0,0-.98,2.1,3.1,3.1,0,0,0,.23,1.247,2.58,2.58,0,0,0,.707.934,6.226,6.226,0,0,0,1.43.84q1.053.473,1.3.627a1.271,1.271,0,0,1,.353.3.577.577,0,0,1,.11.35.625.625,0,0,1-.274.523,1.451,1.451,0,0,1-.86.2,5.827,5.827,0,0,1-1.494-.217,7.817,7.817,0,0,1-1.567-.6v2.347a6.064,6.064,0,0,0,1.374.477,8.229,8.229,0,0,0,1.634.137,4.919,4.919,0,0,0,2.034-.39,3.011,3.011,0,0,0,1.327-1.093,2.877,2.877,0,0,0,.46-1.61,2.641,2.641,0,0,0-.49-1.637A4.45,4.45,0,0,0,4.7,89.831,11.252,11.252,0,0,1,3.085,89a.645.645,0,0,1-.3-.513A.547.547,0,0,1,3.022,88.043Z" transform="translate(0 -58.611)"/><path class="a" d="M28.846,92.762a3.615,3.615,0,0,0-2.76,1.023,4.115,4.115,0,0,0-.967,2.937,3.778,3.778,0,0,0,1.044,2.857,4.056,4.056,0,0,0,2.93,1,8.756,8.756,0,0,0,1.56-.12,4.587,4.587,0,0,0,1.267-.433V98.156a6.247,6.247,0,0,1-1.25.443,5.749,5.749,0,0,1-1.263.13,1.816,1.816,0,0,1-1.19-.36,1.293,1.293,0,0,1-.464-.993h4.66v-1.16a3.382,3.382,0,0,0-.93-2.563A3.66,3.66,0,0,0,28.846,92.762Zm-1.04,2.974a1.362,1.362,0,0,1,.363-.91,1.085,1.085,0,0,1,.77-.29,1.024,1.024,0,0,1,.8.327,1.3,1.3,0,0,1,.31.873Z" transform="translate(-17.157 -63.417)"/><path class="a" d="M55.11,92.809q-.507-.047-.713-.046a3.73,3.73,0,0,0-2.4.68,2.323,2.323,0,0,0-.84,1.914,2.544,2.544,0,0,0,.337,1.347,2.012,2.012,0,0,0,.923.813,2.86,2.86,0,0,0-.807.643,1.013,1.013,0,0,0,.063,1.27,1.513,1.513,0,0,0,.6.473q-1.68.394-1.68,1.747a1.711,1.711,0,0,0,.87,1.543,4.737,4.737,0,0,0,2.477.537,6.029,6.029,0,0,0,3.3-.767,2.425,2.425,0,0,0,1.177-2.147q0-2.14-2.54-2.14H54.63a2.673,2.673,0,0,1-.82-.1q-.314-.1-.313-.3a.693.693,0,0,1,.093-.327,3.3,3.3,0,0,0,.667.053,4.087,4.087,0,0,0,2.557-.674,2.27,2.27,0,0,0,.857-1.893,1.836,1.836,0,0,0-.213-.9l1.033-.38V92.9H55.857Q55.617,92.856,55.11,92.809Zm-1.313,7.9h1.02a3.1,3.1,0,0,1,.994.123.44.44,0,0,1,.347.424q0,.373-.57.61a4.028,4.028,0,0,1-1.517.237,1.874,1.874,0,0,1-.927-.2.585.585,0,0,1-.347-.517.574.574,0,0,1,.29-.483A1.234,1.234,0,0,1,53.8,100.71ZM55,96.243a.665.665,0,0,1-.577.287q-.807,0-.807-1.16t.807-1.16q.78,0,.78,1.174A1.491,1.491,0,0,1,55,96.243Z" transform="translate(-34.633 -63.418)"/><path class="a" d="M84.1,96.494a4.032,4.032,0,0,1-.287,1.79,1,1,0,0,1-.96.53.726.726,0,0,1-.69-.38,2.366,2.366,0,0,1-.21-1.12V93.187H79.345v4.92a2.835,2.835,0,0,0,.693,2.044,2.559,2.559,0,0,0,1.94.724,3.171,3.171,0,0,0,1.37-.277,2.122,2.122,0,0,0,.909-.8h.153l.327.94h1.967V93.187H84.1v3.307Z" transform="translate(-54.354 -63.709)"/><path class="a" d="M113.077,92.762a2.179,2.179,0,0,0-1.177.37,2.609,2.609,0,0,0-.91.97h-.127l-.407-1.207h-1.94v7.554h2.607V96.736a1.528,1.528,0,0,1,.387-1.123,1.689,1.689,0,0,1,1.24-.39,3.832,3.832,0,0,1,.887.08l.233-2.46-.147-.027A3.741,3.741,0,0,0,113.077,92.762Z" transform="translate(-74.365 -63.417)"/><path class="a" d="M133.639,93.235a3.988,3.988,0,0,0-1.967-.473,3.724,3.724,0,0,0-2.8,1.023,4.591,4.591,0,0,0,.02,5.737,3.614,3.614,0,0,0,2.737,1.06,3.689,3.689,0,0,0,2.79-1.037,4,4,0,0,0,1-2.89,4.375,4.375,0,0,0-.464-2.063A3.229,3.229,0,0,0,133.639,93.235Zm-1.124,4.9a.878.878,0,0,1-.857.51.9.9,0,0,1-.873-.51,3.35,3.35,0,0,1-.26-1.483,3.217,3.217,0,0,1,.26-1.464,1,1,0,0,1,1.727,0,3.3,3.3,0,0,1,.254,1.46A3.471,3.471,0,0,1,132.515,98.139Z" transform="translate(-87.646 -63.417)"/><path class="a" d="M117.114,23.417a1.124,1.124,0,1,0-2.247,0v1.01h2.247Z" transform="translate(-78.721 -15.078)"/><rect class="a" width="6.239" height="4.553" transform="translate(34.15 11.312)"/><path class="a" d="M105.485,3.275,95.713.344a.729.729,0,0,0-.42,0L85.52,3.275a.73.73,0,0,0-.52.7v10.75a6.943,6.943,0,0,0,1.683,4.254,17.388,17.388,0,0,0,3.506,3.247A31.443,31.443,0,0,0,95.2,25.164a.73.73,0,0,0,.6,0,31.458,31.458,0,0,0,5.016-2.937,17.388,17.388,0,0,0,3.506-3.247,6.944,6.944,0,0,0,1.682-4.254V3.975A.731.731,0,0,0,105.485,3.275Zm-4.9,13.572a.982.982,0,0,1-.982.982H91.4a.982.982,0,0,1-.982-.982V10.331a.982.982,0,0,1,.982-.982h1.014V8.339a3.087,3.087,0,1,1,6.174,0v1.01H99.6a.982.982,0,0,1,.982.982v6.517Z" transform="translate(-58.233)"/></g></svg>