<svg xmlns="http://www.w3.org/2000/svg" width="99" height="26.705" viewBox="0 0 99 26.705"><defs><style>.a{fill:#1b3e60;}.b{fill:#ec2a58;}</style></defs><g transform="translate(0 -0.148)"><path class="a" d="M40.868,10.7h-5.7a.234.234,0,0,0-.245.22v.958a.233.233,0,0,0,.245.22H37a.234.234,0,0,1,.245.22v3.755a.232.232,0,0,0,.244.219h1.064a.233.233,0,0,0,.245-.219V12.318a.233.233,0,0,1,.245-.22h1.827a.233.233,0,0,0,.244-.22V10.92A.234.234,0,0,0,40.868,10.7Z"/><path class="a" d="M55.33,10.7h-5.7a.234.234,0,0,0-.245.22v.958a.233.233,0,0,0,.245.22h5.7a.234.234,0,0,0,.245-.22V10.92A.234.234,0,0,0,55.33,10.7Z"/><path class="a" d="M55.33,12.8h-5.7a.234.234,0,0,0-.245.22v.958a.233.233,0,0,0,.245.22h5.7a.234.234,0,0,0,.245-.22v-.958A.233.233,0,0,0,55.33,12.8Z"/><path class="a" d="M55.33,14.9h-5.7a.234.234,0,0,0-.245.22v.959a.233.233,0,0,0,.245.219h5.7a.233.233,0,0,0,.245-.219v-.959A.233.233,0,0,0,55.33,14.9Z"/><path class="a" d="M69.765,14.9H67.043a.11.11,0,0,1-.1-.173l2.849-3.676a.22.22,0,0,0-.2-.347H64.1a.234.234,0,0,0-.245.22v.958a.233.233,0,0,0,.245.22h2.75a.11.11,0,0,1,.1.173L64.1,15.947a.22.22,0,0,0,.2.346h5.466a.232.232,0,0,0,.244-.219v-.959A.233.233,0,0,0,69.765,14.9Z"/><path class="a" d="M84.271,10.7H83.207a.233.233,0,0,0-.245.22v3.274a.547.547,0,0,1-.311.572,1.241,1.241,0,0,1-.457.112H80.616c-.432,0-.574-.141-.657-.279a.889.889,0,0,1-.116-.4V10.92a.233.233,0,0,0-.245-.22H78.534a.233.233,0,0,0-.244.22v3.258a2.12,2.12,0,0,0,.654,1.517,2.38,2.38,0,0,0,1.673.582H82.2a2.911,2.911,0,0,0,1.116-.246,1.926,1.926,0,0,0,1.2-1.837V10.92A.232.232,0,0,0,84.271,10.7Z"/><path class="a" d="M94.757,12.1h4A.234.234,0,0,0,99,11.878V10.92a.233.233,0,0,0-.245-.22H94.732a2.443,2.443,0,0,0-.928.212A1.667,1.667,0,0,0,93.853,14a2.582,2.582,0,0,0,.946.2h2.272l.022,0,.051-.007a.222.222,0,0,1,.258.3c0,.125,0,.385-.427.4l-3.94.006a.234.234,0,0,0-.244.221l0,.958a.234.234,0,0,0,.245.221l3.947-.008a1.848,1.848,0,0,0,1.971-1.8,1.592,1.592,0,0,0-.575-1.294,2.04,2.04,0,0,0-1.335-.4H94.8a.994.994,0,0,1-.284-.063c-.1-.042-.169-.087-.169-.28C94.347,12.122,94.618,12.1,94.757,12.1Z"/><path class="b" d="M12.844,16.523H13.95a.242.242,0,0,0,.254-.229v-3.9a.243.243,0,0,1,.254-.229h1.9a.242.242,0,0,0,.254-.229v-1a.243.243,0,0,0-.254-.229H10.436a.242.242,0,0,0-.254.229v1a.243.243,0,0,0,.254.229h1.9a.243.243,0,0,1,.254.229v3.9A.243.243,0,0,0,12.844,16.523Z"/><path class="b" d="M5.429,3.562a.348.348,0,0,0,.213-.073A12.715,12.715,0,0,1,6.966,2.6l1.221,2.2A10.133,10.133,0,0,0,6.224,6.34h0a10.07,10.07,0,0,0-2.893,5.883.349.349,0,0,0,.3.391.34.34,0,0,0,.045,0,.35.35,0,0,0,.346-.305,9.551,9.551,0,0,1,.237-1.187l2.32.681A7.073,7.073,0,0,0,6.363,13.5a6.98,6.98,0,0,0,1.092,3.775.341.341,0,0,0,.526.057L8,17.316a.34.34,0,0,0,.042-.426A6.3,6.3,0,0,1,7.06,13.5a6.373,6.373,0,0,1,.251-1.782c.009-.019.029-.029.035-.05a.294.294,0,0,0,.005-.059,6.331,6.331,0,0,1,.7-1.519.343.343,0,0,0-.042-.43L8,9.647a.341.341,0,0,0-.527.056,6.974,6.974,0,0,0-.686,1.435L4.46,10.456a9.446,9.446,0,0,1,7.416-6.27.345.345,0,0,0,.293-.341v-.01a.345.345,0,0,0-.4-.339,10.061,10.061,0,0,0-2.971.97l-1.221-2.2A12.7,12.7,0,0,1,21.154,3.489a.349.349,0,0,0,.427-.553,13.4,13.4,0,0,0-16.365,0,.349.349,0,0,0,.213.626Z"/><path class="b" d="M2.414,19.816l2.208-1.189a10.23,10.23,0,0,0,1.6,2.08h0a10.061,10.061,0,0,0,5.544,2.844.344.344,0,0,0,.4-.338V23.2a.346.346,0,0,0-.293-.34c-.255-.041-.5-.12-.747-.182l.667-2.324a7.092,7.092,0,0,0,1.565.2.022.022,0,0,0,.011,0h.046a.025.025,0,0,0,.012,0A6.958,6.958,0,0,0,17.2,19.431a.34.34,0,0,0,.055-.525l-.014-.014a.343.343,0,0,0-.43-.041,6.286,6.286,0,0,1-6.761.043.342.342,0,0,0-.422.043l-.019.02a.338.338,0,0,0,.057.523,6.914,6.914,0,0,0,1.458.683l-.674,2.352a9.378,9.378,0,0,1-3.734-2.3v0a9.365,9.365,0,0,1-2.694-5.478.346.346,0,0,0-.344-.3.339.339,0,0,0-.045,0,.349.349,0,0,0-.3.391,10.1,10.1,0,0,0,.957,3.188L2.077,19.2A12.549,12.549,0,0,1,3.436,5.667a.349.349,0,1,0-.547-.433,13.241,13.241,0,0,0-2.884,8.2A.169.169,0,0,0,0,13.455c0,.015,0,.03,0,.045s0,.03,0,.045,0,.015,0,.022a13.262,13.262,0,0,0,2.784,8.069.347.347,0,0,0,.277.137.351.351,0,0,0,.213-.074.347.347,0,0,0,.063-.488A12.687,12.687,0,0,1,2.414,19.816Z"/><path class="b" d="M26.793,13.5c0-.015,0-.03,0-.045s0-.015,0-.023a13.254,13.254,0,0,0-2.885-8.2.349.349,0,0,0-.548.433,12.918,12.918,0,0,1,1.024,1.516l-2.24,1.208a10.272,10.272,0,0,0-1.585-2.051h0A10.053,10.053,0,0,0,15.013,3.5a.346.346,0,0,0-.4.339v.01a.347.347,0,0,0,.294.341c.259.042.505.122.757.184l-.634,2.281a7.048,7.048,0,0,0-1.594-.209h-.07A6.986,6.986,0,0,0,9.69,7.508a.336.336,0,0,0-.058.521l.021.021a.337.337,0,0,0,.419.043,6.284,6.284,0,0,1,6.719.043.342.342,0,0,0,.428-.042l.016-.016a.339.339,0,0,0-.056-.524A7,7,0,0,0,15.7,6.847l.642-2.312a9.476,9.476,0,0,1,6.419,7.777.349.349,0,0,0,.346.305.34.34,0,0,0,.045,0,.35.35,0,0,0,.3-.391A10.089,10.089,0,0,0,22.477,9L24.717,7.8a12.538,12.538,0,0,1-1.262,13.414.347.347,0,0,0,.063.488.351.351,0,0,0,.213.074.346.346,0,0,0,.276-.137,13.262,13.262,0,0,0,2.784-8.069c0-.008,0-.015,0-.022S26.793,13.516,26.793,13.5Z"/><path class="b" d="M21.275,23.416a12.918,12.918,0,0,1-1.438.978l-1.2-2.175a10.221,10.221,0,0,0,1.913-1.5l.013-.01.023-.025-.016.016a10.07,10.07,0,0,0,2.885-5.875.35.35,0,0,0-.3-.391.339.339,0,0,0-.045,0,.349.349,0,0,0-.346.3,9.725,9.725,0,0,1-.224,1.137l-2.312-.7a7.079,7.079,0,0,0,.211-1.669,6.994,6.994,0,0,0-1.06-3.723.338.338,0,0,0-.524-.059l-.019.019a.34.34,0,0,0-.044.421A6.359,6.359,0,0,1,18.8,16.82a.341.341,0,0,0,.044.42l.02.02a.337.337,0,0,0,.523-.061,6.9,6.9,0,0,0,.634-1.362l2.316.7a9.363,9.363,0,0,1-2.273,3.671v0a9.371,9.371,0,0,1-5.16,2.646.347.347,0,0,0-.294.34v.012a.344.344,0,0,0,.4.338,10.078,10.078,0,0,0,3.012-.989l1.2,2.172A12.691,12.691,0,0,1,5.517,23.417a.349.349,0,1,0-.433.547,13.4,13.4,0,0,0,16.623,0,.349.349,0,0,0-.432-.548Z"/><path class="b" d="M6.178,6.354l.036-.038-.025.024A.171.171,0,0,0,6.178,6.354Z"/><path class="b" d="M6.238,6.292a.272.272,0,0,0-.024.024l.037-.035Z"/><path class="b" d="M20.617,20.646l-.036.037.025-.023S20.613,20.65,20.617,20.646Z"/></g></svg>