<svg xmlns="http://www.w3.org/2000/svg" width="43" height="28" viewBox="0 0 43 28"><defs><style>.a{fill:#0059a3;}.b{fill:#fff;}</style></defs><path class="a" d="M40,0H3A2.946,2.946,0,0,0,0,3V25a3.009,3.009,0,0,0,3,3H40a2.946,2.946,0,0,0,3-3V3A3.009,3.009,0,0,0,40,0Z"/><path class="b" d="M15.985,18.371H18.36L19.849,9.65H17.471Z"/><path class="b" d="M24.641,13.153c-.832-.4-1.341-.673-1.334-1.083,0-.361.429-.749,1.36-.749a4.348,4.348,0,0,1,1.777.334l.214.1.323-1.89a6.123,6.123,0,0,0-2.13-.366c-2.348,0-4,1.182-4.017,2.878-.016,1.253,1.181,1.951,2.081,2.37.927.426,1.237.7,1.233,1.08-.007.584-.74.85-1.423.85a5,5,0,0,1-2.237-.455l-.305-.141-.334,1.953A7.474,7.474,0,0,0,22.5,18.5c2.5,0,4.12-1.168,4.139-2.979C26.645,14.529,26.011,13.775,24.641,13.153Z"/><path class="b" d="M33.074,9.66H31.239a1.182,1.182,0,0,0-1.245.723l-3.527,7.99h2.494s.406-1.071.5-1.309l3.045,0c.07.306.287,1.306.287,1.306H35Zm-2.929,5.619c.2-.5.946-2.436.946-2.436-.013.021.195-.506.316-.834l.161.752.551,2.518Z"/><path class="b" d="M13.992,9.658,11.664,15.6,11.416,14.4l-.833-4.008a.991.991,0,0,0-1.077-.736H5.672l-.029.181a9.84,9.84,0,0,1,2.5.976l2.109,7.556,2.515,0,3.741-8.7H13.992Z"/></svg>