<svg xmlns="http://www.w3.org/2000/svg" width="36" height="36" viewBox="0 0 36 36"><defs><style>.a{fill:#be9655;}</style></defs><path class="a" d="M32.618,14.523H28.2V3.383A3.386,3.386,0,0,0,24.82,0H3.382A3.386,3.386,0,0,0,0,3.383V18.1a3.386,3.386,0,0,0,3.382,3.382H7.8v11.14A3.386,3.386,0,0,0,11.18,36H32.618A3.386,3.386,0,0,0,36,32.619V17.9A3.386,3.386,0,0,0,32.618,14.523ZM3.382,3.274H24.821a.109.109,0,0,1,.109.109V6.14H3.273V3.383A.109.109,0,0,1,3.382,3.274Zm0,14.933a.109.109,0,0,1-.109-.109V9.413H24.93v5.11H11.18A3.386,3.386,0,0,0,7.8,17.9v.3ZM32.727,32.619a.109.109,0,0,1-.109.109H11.18a.109.109,0,0,1-.109-.109V17.9a.109.109,0,0,1,.109-.109H32.618a.109.109,0,0,1,.109.109Z" transform="translate(0 -0.001)"/><path class="a" d="M186.053,381.543h-4.4a1.636,1.636,0,1,0,0,3.273h4.4a1.636,1.636,0,0,0,0-3.273Z" transform="translate(-167.052 -354.072)"/></svg>