<svg xmlns="http://www.w3.org/2000/svg" width="36" height="36" viewBox="0 0 36 36"><defs><style>.a{fill:#be9655;}</style></defs><g transform="translate(9.673 9.702)"><path class="a" d="M135.987,151.372a1.636,1.636,0,0,1-1.157-2.793l13.346-13.346a1.636,1.636,0,0,1,2.314,2.314l-13.346,13.346A1.632,1.632,0,0,1,135.987,151.372Z" transform="translate(-134.351 -134.754)"/></g><g transform="translate(9.688 8.344)"><path class="a" d="M138.839,124.454a4.281,4.281,0,1,1,4.28-4.281A4.286,4.286,0,0,1,138.839,124.454Zm0-5.288a1.008,1.008,0,1,0,1.008,1.008A1.009,1.009,0,0,0,138.839,119.166Z" transform="translate(-134.558 -115.893)"/></g><g transform="translate(17.751 19.095)"><path class="a" d="M250.818,273.763a4.281,4.281,0,1,1,4.281-4.281A4.285,4.285,0,0,1,250.818,273.763Zm0-5.288a1.008,1.008,0,1,0,1.008,1.008A1.009,1.009,0,0,0,250.818,268.475Z" transform="translate(-246.538 -265.202)"/></g><g transform="translate(0 0)"><path class="a" d="M18,36A18,18,0,1,1,36,18,18.02,18.02,0,0,1,18,36ZM18,3.273A14.727,14.727,0,1,0,32.727,18,14.744,14.744,0,0,0,18,3.273Z"/></g></svg>