<svg xmlns="http://www.w3.org/2000/svg" width="36" height="32.942" viewBox="0 0 36 32.942"><defs><style>.a{fill:#be9655;}</style></defs><path class="a" d="M23.643,21.239A12.305,12.305,0,0,0,14.3,25.512,9.435,9.435,0,1,0,7.8,42.889v9.655a1.636,1.636,0,0,0,1.636,1.636H24.3a1.636,1.636,0,0,0,1.636-1.636V45.737a12.357,12.357,0,0,0-2.3-24.5Zm.562,21.422a1.641,1.641,0,0,0-.287.044,1.64,1.64,0,0,0-.275-.025,9.009,9.009,0,0,1-6.55-2.79,1.636,1.636,0,1,0-2.359,2.268,12.237,12.237,0,0,0,7.935,3.753v5h-11.6V41.394a1.636,1.636,0,0,0-1.636-1.636,6.162,6.162,0,1,1,4.109-10.753,1.636,1.636,0,0,0,2.466-.331,9.083,9.083,0,1,1,8.2,13.986Z" transform="translate(0 -21.239)"/></svg>