<svg xmlns="http://www.w3.org/2000/svg" width="36" height="28.352" viewBox="0 0 36 28.352"><defs><style>.a{fill:#be9655;}</style></defs><path class="a" d="M34.364,68.9H31.9a14.368,14.368,0,0,0,1.481-6.856,8.757,8.757,0,0,0-8.509-8.936A12.964,12.964,0,0,0,18,55.353a12.962,12.962,0,0,0-6.872-2.243,8.757,8.757,0,0,0-8.509,8.936A14.366,14.366,0,0,0,4.1,68.9H1.636a1.636,1.636,0,0,0,0,3.273h4.47a34.985,34.985,0,0,0,11.167,9.117,1.636,1.636,0,0,0,1.453,0,34.987,34.987,0,0,0,11.167-9.117h4.47a1.636,1.636,0,0,0,0-3.273ZM5.89,62.152c0-.024,0-.047,0-.071a5.488,5.488,0,0,1,5.236-5.7,10.313,10.313,0,0,1,5.813,2.24,1.642,1.642,0,0,0,2.118,0,10.314,10.314,0,0,1,5.813-2.24,5.488,5.488,0,0,1,5.236,5.7q0,.035,0,.071a11.785,11.785,0,0,1-1.948,6.75h-.029l-4.007-7.755a1.636,1.636,0,0,0-2.95.088l-3.527,7.954L14.712,65.17a1.637,1.637,0,0,0-2.478-.192L8.31,68.9H7.83A11.8,11.8,0,0,1,5.89,62.152ZM18,77.967a33.685,33.685,0,0,1-7.958-6.178c.036-.03.071-.061.1-.094L13.2,68.644l3.479,4.762a1.637,1.637,0,0,0,2.817-.3l3.291-7.423,2.9,5.609a1.629,1.629,0,0,0,.328.432A33.776,33.776,0,0,1,18,77.967Z" transform="translate(0 -53.11)"/></svg>