<svg xmlns="http://www.w3.org/2000/svg" width="24" height="21.091" viewBox="0 0 24 21.091"><defs><style>.a{fill:#be9655;}</style></defs><g transform="translate(0 -30.306)"><path class="a" d="M12,51.4a1.09,1.09,0,0,1-.465-.1C11.048,51.063-.364,45.584.009,36.9a6.589,6.589,0,0,1,6.541-6.6A10.444,10.444,0,0,1,12,32.045a10.444,10.444,0,0,1,5.45-1.739,6.589,6.589,0,0,1,6.541,6.6c.373,8.682-11.04,14.161-11.526,14.391A1.092,1.092,0,0,1,12,51.4ZM6.55,32.488A4.4,4.4,0,0,0,2.19,36.927c0,.016,0,.033,0,.049C1.9,43.334,9.955,48,12,49.082,14.043,48,22.1,43.335,21.81,36.977c0-.016,0-.033,0-.049a4.4,4.4,0,0,0-4.359-4.439,8.65,8.65,0,0,0-4.765,1.74,1.094,1.094,0,0,1-1.371,0A8.647,8.647,0,0,0,6.55,32.488Z" transform="translate(0)"/></g></svg>