<svg xmlns="http://www.w3.org/2000/svg" width="34.684" height="36" viewBox="0 0 34.684 36"><defs><style>.a{fill:#be9655;}</style></defs><g transform="translate(0 0)"><path class="a" d="M26.483,36a2.586,2.586,0,0,1-1.551-.512l-3.349-2.482-4.179.052h-.027a2.619,2.619,0,0,1-2.488-1.823l-1.237-3.959-3.409-2.392a2.6,2.6,0,0,1-.965-2.962L10.621,18,9.279,14.079a2.6,2.6,0,0,1,.965-2.961l3.409-2.392L14.89,4.767a2.616,2.616,0,0,1,2.482-1.823h.035L21.583,3,24.932.515a2.59,2.59,0,0,1,3.1,0L31.383,3l4.179-.052H35.6a2.612,2.612,0,0,1,2.476,1.822l1.237,3.959,3.409,2.392a2.605,2.605,0,0,1,.966,2.961L42.344,18l1.343,3.923a2.605,2.605,0,0,1-.965,2.961l-3.409,2.392-1.237,3.959a2.6,2.6,0,0,1-2.52,1.822l-4.174-.052-3.349,2.482A2.587,2.587,0,0,1,26.483,36Zm-4.368-6.272a1.635,1.635,0,0,1,.974.322l3.394,2.515,3.394-2.515a1.637,1.637,0,0,1,.974-.322h.02l4.231.053,1.253-4.01a1.637,1.637,0,0,1,.622-.851L40.425,22.5l-1.358-3.968a1.636,1.636,0,0,1,0-1.06L40.425,13.5l-3.447-2.419a1.636,1.636,0,0,1-.622-.851L35.1,6.223l-4.231.052a1.624,1.624,0,0,1-.994-.321L26.483,3.439,23.089,5.954a1.626,1.626,0,0,1-.994.321l-4.231-.053-1.253,4.01a1.636,1.636,0,0,1-.622.852L12.541,13.5,13.9,17.472a1.635,1.635,0,0,1,0,1.06L12.541,22.5l3.447,2.419a1.637,1.637,0,0,1,.622.852l1.253,4.01,4.231-.052Zm13.483.059h0Zm4.993-6.8h0ZM35.607,6.217h0Zm-18.242,0h0Z" transform="translate(-9.141 0.001)"/></g><g transform="translate(9.601 12.157)"><path class="a" d="M148.768,180.531a1.63,1.63,0,0,1-1.012-.351l-4.645-3.661a1.636,1.636,0,1,1,2.026-2.57l3.44,2.712,6.539-7.277a1.636,1.636,0,0,1,2.434,2.187l-7.564,8.418A1.633,1.633,0,0,1,148.768,180.531Z" transform="translate(-142.488 -168.84)"/></g></svg>